<svg width="49" height="48" viewBox="0 0 49 48" fill="none" xmlns="http://www.w3.org/2000/svg">
<rect x="0.5" width="48" height="48" rx="24" fill="#ED3241"/>
<mask id="mask0_0_1475" style="mask-type:alpha" maskUnits="userSpaceOnUse" x="17" y="17" width="15" height="14">
<path d="M31.1044 22.7108C31.1903 23.171 31.2371 23.6522 31.2371 24.1543C31.2371 28.0821 28.6083 30.875 24.6379 30.875C23.735 30.8753 22.8409 30.6976 22.0067 30.3522C21.1724 30.0068 20.4144 29.5004 19.776 28.862C19.1375 28.2235 18.6311 27.4655 18.2857 26.6313C17.9403 25.797 17.7627 24.9029 17.7629 24C17.7627 23.0971 17.9403 22.203 18.2857 21.3687C18.6311 20.5345 19.1375 19.7765 19.776 19.138C20.4144 18.4996 21.1724 17.9932 22.0067 17.6478C22.8409 17.3024 23.735 17.1247 24.6379 17.125C26.4943 17.125 28.0454 17.808 29.2355 18.9171L27.2974 20.8551V20.8502C26.576 20.163 25.6604 19.8103 24.6379 19.8103C22.3696 19.8103 20.5258 21.7267 20.5258 23.9958C20.5258 26.2642 22.3696 28.1848 24.6379 28.1848C26.6961 28.1848 28.0971 27.008 28.3848 25.3919H24.6379V22.7108H31.1051H31.1044Z" fill="white"/>
</mask>
<g mask="url(#mask0_0_1475)">
<rect x="17.0012" y="16.5" width="15" height="15" fill="white"/>
</g>
</svg>
