<svg width="75" height="75" viewBox="0 0 75 75" fill="none" xmlns="http://www.w3.org/2000/svg">
<rect width="75" height="75" rx="12" fill="#CBE1FF" fill-opacity="0.08"/>
<path d="M15 25H22.4116M15 35H19.941M31.7995 26.25L39.1666 34.45C39.8213 35.1789 40.6114 35.7701 41.4919 36.19C42.3724 36.6098 43.326 36.85 44.2983 36.8969C45.2705 36.9438 46.2424 36.7965 47.1583 36.4633C48.0743 36.1301 48.9164 35.6176 49.6367 34.955L57.74 27.5M29.8725 29.5025L28.3902 44.5025C28.3215 45.1976 28.3975 45.8995 28.6133 46.5631C28.8291 47.2266 29.1799 47.837 29.6431 48.355C30.1063 48.8729 30.6716 49.2869 31.3026 49.5702C31.9336 49.8536 32.6162 50 33.3065 50H53.0213C54.2466 50 55.4282 49.5392 56.3366 48.7072C57.2451 47.8752 57.8157 46.7313 57.9376 45.4975L59.4199 30.4975C59.4886 29.8024 59.4126 29.1005 59.1968 28.4369C58.981 27.7734 58.6302 27.163 58.167 26.645C57.7038 26.1271 57.1385 25.7131 56.5075 25.4298C55.8765 25.1464 55.1939 25 54.5036 25H34.7888C33.5635 25 32.382 25.4608 31.4735 26.2928C30.565 27.1248 29.9944 28.2687 29.8725 29.5025Z" stroke="#4894FE" stroke-width="3" stroke-linecap="round" stroke-linejoin="round"/>
</svg>
