<svg width="49" height="48" viewBox="0 0 49 48" fill="none" xmlns="http://www.w3.org/2000/svg">
<rect x="0.5" width="48" height="48" rx="24" fill="#1F2024"/>
<mask id="mask0_0_799" style="mask-type:alpha" maskUnits="userSpaceOnUse" x="18" y="16" width="13" height="16">
<path d="M27.4831 16.5074C27.4512 16.4718 26.3027 16.5215 25.3034 17.6062C24.304 18.6899 24.4577 19.9331 24.4802 19.9649C24.5027 19.9968 25.9052 20.0465 26.8006 18.7856C27.6959 17.5246 27.5149 16.544 27.4831 16.5074ZM30.5899 27.5071C30.5449 27.4171 28.4102 26.3503 28.609 24.299C28.8077 22.2468 30.1793 21.6843 30.2009 21.6234C30.2224 21.5624 29.6412 20.8828 29.0252 20.5387C28.573 20.2961 28.0725 20.1571 27.5599 20.1318C27.4587 20.129 27.1071 20.0428 26.3843 20.2406C25.9081 20.3709 24.8346 20.7928 24.5393 20.8096C24.2431 20.8265 23.3618 20.3203 22.414 20.1862C21.8074 20.069 21.1643 20.309 20.704 20.4937C20.2446 20.6774 19.3709 21.2006 18.7596 22.5909C18.1484 23.9803 18.4681 26.1815 18.6968 26.8659C18.9256 27.5493 19.2827 28.6696 19.8902 29.4871C20.4302 30.4096 21.1465 31.0499 21.4456 31.2674C21.7446 31.4849 22.5884 31.6293 23.1734 31.3303C23.644 31.0415 24.4934 30.8756 24.829 30.8878C25.1637 30.8999 25.8237 31.0321 26.4996 31.3931C27.0349 31.5778 27.5412 31.5009 28.0484 31.2946C28.5556 31.0874 29.2896 30.3018 30.1465 28.709C30.4718 27.9684 30.6199 27.5681 30.5899 27.5071Z" fill="white"/>
<path d="M27.4831 16.5074C27.4512 16.4718 26.3027 16.5215 25.3034 17.6062C24.304 18.6899 24.4577 19.9331 24.4802 19.9649C24.5027 19.9968 25.9052 20.0465 26.8006 18.7856C27.6959 17.5246 27.5149 16.544 27.4831 16.5074ZM30.5899 27.5071C30.5449 27.4171 28.4102 26.3503 28.609 24.299C28.8077 22.2468 30.1793 21.6843 30.2009 21.6234C30.2224 21.5624 29.6412 20.8828 29.0252 20.5387C28.573 20.2961 28.0725 20.1571 27.5599 20.1318C27.4587 20.129 27.1071 20.0428 26.3843 20.2406C25.9081 20.3709 24.8346 20.7928 24.5393 20.8096C24.2431 20.8265 23.3618 20.3203 22.414 20.1862C21.8074 20.069 21.1643 20.309 20.704 20.4937C20.2446 20.6774 19.3709 21.2006 18.7596 22.5909C18.1484 23.9803 18.4681 26.1815 18.6968 26.8659C18.9256 27.5493 19.2827 28.6696 19.8902 29.4871C20.4302 30.4096 21.1465 31.0499 21.4456 31.2674C21.7446 31.4849 22.5884 31.6293 23.1734 31.3303C23.644 31.0415 24.4934 30.8756 24.829 30.8878C25.1637 30.8999 25.8237 31.0321 26.4996 31.3931C27.0349 31.5778 27.5412 31.5009 28.0484 31.2946C28.5556 31.0874 29.2896 30.3018 30.1465 28.709C30.4718 27.9684 30.6199 27.5681 30.5899 27.5071Z" fill="white"/>
</mask>
<g mask="url(#mask0_0_799)">
<rect x="17.0012" y="16.5" width="15" height="15" fill="white"/>
</g>
</svg>
